<svg width="18" height="18" viewBox="0 0 18 18" fill="none" xmlns="http://www.w3.org/2000/svg">
<path d="M14.1927 8.57915H12.1162C11.5219 8.57915 10.952 8.32996 10.5317 7.88636C10.1114 7.44277 9.87518 6.84108 9.87493 6.21362V1.64113C9.87147 1.21404 10.0271 0.802618 10.3084 0.495616C10.5896 0.188615 10.9738 0.0106304 11.3782 5.66412e-05C11.5781 -0.00172011 11.7763 0.03832 11.9614 0.117883C12.1465 0.197446 12.3149 0.314945 12.4568 0.463597C12.5987 0.612248 12.7113 0.789123 12.7881 0.983974C12.8648 1.17883 12.9043 1.38779 12.9042 1.59884V6.65176C12.901 6.94738 12.9575 7.24032 13.07 7.51105C13.1825 7.78177 13.3484 8.02407 13.5566 8.22173C13.7367 8.39567 13.9555 8.51863 14.1927 8.57915Z" fill="#A3DC2F"/>
<path d="M15.5785 8.4543C16.551 8.4543 17.3393 7.62193 17.3393 6.59513C17.3393 5.56834 16.551 4.73596 15.5785 4.73596C14.6061 4.73596 13.8178 5.56834 13.8178 6.59513C13.8178 7.62193 14.6061 8.4543 15.5785 8.4543Z" fill="#A3DC2F"/>
<path d="M9.87491 14.6775V12.484C9.87515 11.8565 10.1114 11.2549 10.5317 10.8113C10.952 10.3677 11.5219 10.1185 12.1161 10.1185H16.4466C16.8511 10.1146 17.2408 10.2789 17.5314 10.5759C17.8221 10.8729 17.9904 11.2788 17.9999 11.7057C18.0016 11.9168 17.9637 12.1261 17.8883 12.3215C17.813 12.517 17.7017 12.6948 17.5609 12.8446C17.4201 12.9944 17.2526 13.1133 17.0681 13.1944C16.8836 13.2755 16.6856 13.3171 16.4858 13.317H11.7003C11.4203 13.3137 11.1429 13.3735 10.8865 13.4923C10.6302 13.6111 10.4007 13.7862 10.2134 14.0059C10.0491 14.1963 9.93267 14.4272 9.87491 14.6775Z" fill="#A3DC2F"/>
<path d="M11.754 18C12.7264 18 13.5147 17.1676 13.5147 16.1408C13.5147 15.114 12.7264 14.2816 11.754 14.2816C10.7815 14.2816 9.99319 15.114 9.99319 16.1408C9.99319 17.1676 10.7815 18 11.754 18Z" fill="#A3DC2F"/>
<path d="M3.80731 9.4209H5.88474C6.479 9.42115 7.04883 9.67059 7.46894 10.1144C7.88906 10.5581 8.12506 11.1599 8.12506 11.7874V16.3599C8.12506 17.2448 7.46079 17.9933 6.62272 18C6.42277 18.0019 6.22445 17.9619 6.03921 17.8824C5.85398 17.8029 5.6855 17.6854 5.54352 17.5368C5.40154 17.3881 5.28887 17.2112 5.21203 17.0163C5.13518 16.8214 5.09568 16.6123 5.09581 16.4012V11.3483C5.09918 11.0528 5.04272 10.7599 4.9302 10.4893C4.81768 10.2187 4.6517 9.97664 4.44337 9.77928C4.2633 9.6052 4.04452 9.48193 3.80731 9.4209Z" fill="#A3DC2F"/>
<path d="M2.42142 13.2641C3.39386 13.2641 4.18219 12.4317 4.18219 11.4049C4.18219 10.3782 3.39386 9.54578 2.42142 9.54578C1.44897 9.54578 0.660645 10.3782 0.660645 11.4049C0.660645 12.4317 1.44897 13.2641 2.42142 13.2641Z" fill="#A3DC2F"/>
<path d="M8.12417 3.32349V5.51604C8.12417 6.14351 7.88816 6.74529 7.46805 7.18907C7.04793 7.63284 6.4781 7.88228 5.88385 7.88254H1.55427C1.14978 7.8862 0.760137 7.72182 0.469384 7.42488C0.178632 7.12795 0.0100677 6.72225 5.36285e-05 6.29527C-0.00162908 6.08423 0.0363029 5.87492 0.111655 5.67945C0.187006 5.48397 0.298287 5.30618 0.439071 5.15637C0.579855 5.00656 0.747357 4.88768 0.931895 4.8066C1.11643 4.72552 1.31435 4.68385 1.51423 4.68399H6.30425C6.58423 4.68738 6.86167 4.62767 7.11807 4.50888C7.37447 4.39008 7.60391 4.21494 7.79112 3.99509C7.95388 3.80437 8.06843 3.57338 8.12417 3.32349Z" fill="#A3DC2F"/>
<path d="M6.246 3.71847C7.21845 3.71847 8.00677 2.88609 8.00677 1.85929C8.00677 0.832502 7.21845 0.00012207 6.246 0.00012207C5.27355 0.00012207 4.48523 0.832502 4.48523 1.85929C4.48523 2.88609 5.27355 3.71847 6.246 3.71847Z" fill="#A3DC2F"/>
</svg>
